<?xml version="1.0"?>
<svg width="500" height="500" xmlns="http://www.w3.org/2000/svg" xmlns:svg="http://www.w3.org/2000/svg" enable-background="new 0 0 500 500" version="1.1" xml:space="preserve">
 <g class="layer">
  <title>Layer 1</title>
  <g id="OBJECTS">
   <g id="svg_2">
    <linearGradient id="SVGID_00000075876926325424697880000003867682643661389969_" x1="0.79" x2="0.59" y1="0.17" y2="0.6">
     <stop offset="0" stop-color="#FFB445"/>
     <stop offset="0.11" stop-color="#FFAC4A"/>
     <stop offset="0.28" stop-color="#FF9858"/>
     <stop offset="0.48" stop-color="#FF7670"/>
     <stop offset="0.71" stop-color="#FF4690"/>
     <stop offset="0.96" stop-color="#FF0BBA"/>
     <stop offset="1" stop-color="#FF00C1"/>
    </linearGradient>
    <path d="m262.92,109.73c53.57,-0.8 47.35,49.51 47.35,49.51l-16.44,-0.16c6.45,-45.73 -32.79,-45.7 -35.12,-45.8c-9.38,-0.39 -23.33,9.82 -21.69,45.24l-16.46,-0.16c0,0 4.59,-48.06 42.36,-48.63z" fill="url(#SVGID_00000075876926325424697880000003867682643661389969_)" id="svg_3"/>
    <linearGradient id="SVGID_00000175300749818122839940000014673779743087077250_" x1="-0.55" x2="0.69" y1="3.01" y2="0.41">
     <stop offset="0" stop-color="#5C1CB2"/>
     <stop offset="0.17" stop-color="#5C59CE"/>
     <stop offset="0.35" stop-color="#5C90E7"/>
     <stop offset="0.48" stop-color="#5CB2F6"/>
     <stop offset="0.55" stop-color="#5CBFFC"/>
     <stop offset="0.99" stop-color="#FF00C1"/>
    </linearGradient>
    <path d="m260.8,109.67c44.76,0.46 39.32,50.34 39.32,50.34l-16.44,-0.16c6.47,-45.73 -22.62,-46.74 -24.97,-46.57c-3.48,0.27 -26.04,0.04 -31.86,46.01l-13.26,-0.4c0,0 2.42,-49.67 47.21,-49.22z" fill="url(#SVGID_00000175300749818122839940000014673779743087077250_)" id="svg_4"/>
    <linearGradient id="SVGID_00000054251902754366224690000003876324782407624617_" x1="0.5" x2="0.48" y1="1" y2="0.19">
     <stop offset="0" stop-color="#606279"/>
     <stop offset="0.21" stop-color="#7D7F91" stop-opacity="0.79"/>
     <stop offset="0.67" stop-color="#C6C7CF" stop-opacity="0.33"/>
     <stop offset="1" stop-color="#FFFFFF" stop-opacity="0"/>
    </linearGradient>
    <path d="m260.8,109.67c44.76,0.46 39.32,50.34 39.32,50.34l-16.44,-0.16c6.47,-45.73 -22.62,-46.74 -24.97,-46.57c-3.48,0.27 -26.04,0.04 -31.86,46.01l-13.26,-0.4c0,0 2.42,-49.67 47.21,-49.22z" fill="url(#SVGID_00000054251902754366224690000003876324782407624617_)" id="svg_5"/>
    <linearGradient id="SVGID_00000113321373782065782740000016603656660468382889_" x1="-0.6" x2="1.52" y1="1.47" y2="-0.41">
     <stop offset="0" stop-color="#5C1CB2"/>
     <stop offset="0.17" stop-color="#5C59CE"/>
     <stop offset="0.35" stop-color="#5C90E7"/>
     <stop offset="0.48" stop-color="#5CB2F6"/>
     <stop offset="0.55" stop-color="#5CBFFC"/>
     <stop offset="0.99" stop-color="#FF00C1"/>
    </linearGradient>
    <path d="m239.22,211.29c16.91,-1.32 30.43,15.25 30.33,37.13c-0.11,22.02 -13.96,41.29 -31.06,42.92c-17.23,1.64 -31.04,-15.23 -30.73,-37.57c0.3,-22.18 14.44,-41.15 31.46,-42.48z" fill="url(#SVGID_00000113321373782065782740000016603656660468382889_)" id="svg_6"/>
    <linearGradient id="SVGID_00000183939118518769948230000013898058481994313616_" x1="0.04" x2="0.88" y1="1.04" y2="0.13">
     <stop offset="0" stop-color="#5C1CB2"/>
     <stop offset="0.17" stop-color="#5C59CE"/>
     <stop offset="0.35" stop-color="#5C90E7"/>
     <stop offset="0.48" stop-color="#5CB2F6"/>
     <stop offset="0.55" stop-color="#5CBFFC"/>
     <stop offset="0.99" stop-color="#FF00C1"/>
    </linearGradient>
    <path d="m177.19,329.05l129.9,9.48c8.94,0.65 40.69,-15.24 40.69,-15.24c7.12,-3.43 -9.13,-154.03 -11.12,-159.68c-0.49,-1.37 -9.95,-8.62 -9.93,-8.5l-2.68,0.02l-130.61,1.36c-5.57,0.05 -10.38,3.1 -11.01,6.97l-23.57,147.09c-2.53,15.64 5.9,17.12 18.33,18.5zm17.98,-73.11c-0.16,-28.79 19.14,-54.13 43.05,-56.76c23.85,-2.62 43.48,18.33 43.91,46.95c0.43,28.8 -18.72,54.54 -42.84,57.33c-24.18,2.79 -43.96,-18.55 -44.12,-47.52z" fill="url(#SVGID_00000183939118518769948230000013898058481994313616_)" id="svg_7">www.onlinestore.com</path>
    <linearGradient id="SVGID_00000098190040358531733120000009012380139011900817_" x1="1.18" x2="-0.01" y1="0.37" y2="0.58">
     <stop offset="0" stop-color="#FFB445"/>
     <stop offset="0.11" stop-color="#FFAC4A"/>
     <stop offset="0.28" stop-color="#FF9858"/>
     <stop offset="0.48" stop-color="#FF7670"/>
     <stop offset="0.71" stop-color="#FF4690"/>
     <stop offset="0.96" stop-color="#FF0BBA"/>
     <stop offset="1" stop-color="#FF00C1"/>
    </linearGradient>
    <path d="m350.3,325.59c-26.27,10.92 -29.41,12.86 -38.49,12.96c-6.78,0.07 -11.92,-0.56 -11.92,-0.56c13.71,-3.66 17.21,-11.95 18.44,-24.49c1.78,-18.04 2.56,-39.47 2.76,-60.33c0.29,-30.86 -0.69,-60.48 -1.61,-76.02c-1.09,-18.38 4.57,-22.02 7.25,-22.04c0,0 6.75,-1.51 9.93,8.5c1.73,5.45 15.3,93.44 20.63,134.03c0.24,1.81 0.46,3.53 0.66,5.14c1.46,11.59 -0.33,19.77 -7.65,22.81z" fill="url(#SVGID_00000098190040358531733120000009012380139011900817_)" id="svg_8"/>
    <linearGradient id="SVGID_00000088821496989534699130000004728341841280149436_" x1="0.65" x2="0.5" y1="0.01" y2="0.86">
     <stop offset="0" stop-color="#FFB445"/>
     <stop offset="0.11" stop-color="#FFAC4A"/>
     <stop offset="0.28" stop-color="#FF9858"/>
     <stop offset="0.48" stop-color="#FF7670"/>
     <stop offset="0.71" stop-color="#FF4690"/>
     <stop offset="0.96" stop-color="#FF0BBA"/>
     <stop offset="1" stop-color="#FF00C1"/>
    </linearGradient>
    <path d="m350.3,325.59c-26.27,10.92 -29.41,12.86 -38.49,12.96c-6.78,0.07 -11.92,-0.56 -11.92,-0.56c13.71,-3.66 17.21,-11.95 18.44,-24.49c1.78,-18.04 2.56,-39.47 2.76,-60.33c2.1,0.18 4.32,0.45 6.68,0.81c21,3.25 27.65,31.79 29.52,43.66c0.5,3.16 0.66,5.14 0.66,5.14c1.46,11.59 -0.33,19.77 -7.65,22.81z" fill="url(#SVGID_00000088821496989534699130000004728341841280149436_)" id="svg_9"/>
    <path d="m311.81,338.55c1.53,-0.02 2.9,-0.09 4.23,-0.25c7.77,-1.89 10.06,-12.31 10.81,-21.37c2.36,-28.48 0.99,-91.82 -2.47,-134.33c-1.54,-19 1.36,-22.7 3.7,-24c3.92,-2.16 6.72,0.88 6.72,0.88c-3.4,-5.41 -8.07,-4.37 -8.07,-4.37c-2.67,0.02 -8.34,3.66 -7.25,22.04c1.54,26.05 3.25,91.62 -1.14,136.35c-1.24,12.54 -4.73,20.82 -18.45,24.49c0,0 5.14,0.63 11.92,0.56z" fill="#00191F" id="svg_10"/>
   </g>
  </g>
 </g>
</svg>